<mxfile host="app.diagrams.net" modified="2023-06-05T12:04:40.463Z" agent="Mozilla/5.0 (Macintosh; Intel Mac OS X 10_15_7) AppleWebKit/537.36 (KHTML, like Gecko) Chrome/114.0.0.0 Safari/537.36" etag="f3TO5web2bqV3WuP7Ivn" version="21.3.7" type="github">
  <diagram name="第 1 页" id="zHU9Mlj6_v0f9uX4H_d1">
    <mxGraphModel dx="954" dy="623" grid="1" gridSize="10" guides="1" tooltips="1" connect="1" arrows="1" fold="1" page="1" pageScale="1" pageWidth="827" pageHeight="1169" math="0" shadow="0">
      <root>
        <mxCell id="0" />
        <mxCell id="1" parent="0" />
        <mxCell id="mkF0pvrn2aJnzlbThKlg-2" value="" style="rounded=0;whiteSpace=wrap;html=1;" vertex="1" parent="1">
          <mxGeometry x="140" y="90" width="120" height="370" as="geometry" />
        </mxCell>
        <mxCell id="mkF0pvrn2aJnzlbThKlg-3" value="" style="rounded=0;whiteSpace=wrap;html=1;" vertex="1" parent="1">
          <mxGeometry x="260" y="90" width="120" height="370" as="geometry" />
        </mxCell>
        <mxCell id="mkF0pvrn2aJnzlbThKlg-4" value="" style="rounded=0;whiteSpace=wrap;html=1;" vertex="1" parent="1">
          <mxGeometry x="380" y="90" width="120" height="370" as="geometry" />
        </mxCell>
        <mxCell id="mkF0pvrn2aJnzlbThKlg-5" value="" style="rounded=0;whiteSpace=wrap;html=1;" vertex="1" parent="1">
          <mxGeometry x="500" y="90" width="120" height="370" as="geometry" />
        </mxCell>
        <mxCell id="mkF0pvrn2aJnzlbThKlg-6" value="" style="rounded=0;whiteSpace=wrap;html=1;" vertex="1" parent="1">
          <mxGeometry x="610" y="90" width="120" height="370" as="geometry" />
        </mxCell>
        <mxCell id="mkF0pvrn2aJnzlbThKlg-8" style="rounded=0;orthogonalLoop=1;jettySize=auto;html=1;exitX=0;exitY=0.25;exitDx=0;exitDy=0;entryX=1;entryY=0.25;entryDx=0;entryDy=0;" edge="1" parent="1">
          <mxGeometry relative="1" as="geometry">
            <mxPoint x="140" y="130" as="sourcePoint" />
            <mxPoint x="260" y="130" as="targetPoint" />
          </mxGeometry>
        </mxCell>
        <mxCell id="mkF0pvrn2aJnzlbThKlg-9" style="rounded=0;orthogonalLoop=1;jettySize=auto;html=1;exitX=0;exitY=0.25;exitDx=0;exitDy=0;entryX=1;entryY=0.25;entryDx=0;entryDy=0;startArrow=classic;startFill=1;endArrow=none;endFill=0;" edge="1" parent="1">
          <mxGeometry relative="1" as="geometry">
            <mxPoint x="140" y="170" as="sourcePoint" />
            <mxPoint x="260" y="170" as="targetPoint" />
          </mxGeometry>
        </mxCell>
        <mxCell id="mkF0pvrn2aJnzlbThKlg-10" style="rounded=0;orthogonalLoop=1;jettySize=auto;html=1;exitX=0;exitY=0.25;exitDx=0;exitDy=0;entryX=1.008;entryY=0.324;entryDx=0;entryDy=0;entryPerimeter=0;" edge="1" parent="1" target="mkF0pvrn2aJnzlbThKlg-3">
          <mxGeometry relative="1" as="geometry">
            <mxPoint x="140" y="210" as="sourcePoint" />
            <mxPoint x="260" y="210" as="targetPoint" />
          </mxGeometry>
        </mxCell>
        <mxCell id="mkF0pvrn2aJnzlbThKlg-11" style="rounded=0;orthogonalLoop=1;jettySize=auto;html=1;exitX=0;exitY=0.25;exitDx=0;exitDy=0;entryX=1.008;entryY=0.324;entryDx=0;entryDy=0;entryPerimeter=0;startArrow=classic;startFill=1;endArrow=none;endFill=0;" edge="1" parent="1">
          <mxGeometry relative="1" as="geometry">
            <mxPoint x="140" y="260" as="sourcePoint" />
            <mxPoint x="381" y="260" as="targetPoint" />
          </mxGeometry>
        </mxCell>
        <mxCell id="mkF0pvrn2aJnzlbThKlg-12" value="who is first hop&lt;br&gt;TTL=1" style="text;html=1;strokeColor=none;fillColor=none;align=center;verticalAlign=middle;whiteSpace=wrap;rounded=0;" vertex="1" parent="1">
          <mxGeometry x="145" y="100" width="110" height="20" as="geometry" />
        </mxCell>
        <mxCell id="mkF0pvrn2aJnzlbThKlg-13" value="I&#39;m first hop&lt;br&gt;TTL=1" style="text;html=1;strokeColor=none;fillColor=none;align=center;verticalAlign=middle;whiteSpace=wrap;rounded=0;" vertex="1" parent="1">
          <mxGeometry x="150" y="140" width="110" height="20" as="geometry" />
        </mxCell>
        <mxCell id="mkF0pvrn2aJnzlbThKlg-14" value="who is second hop&lt;br&gt;TTL=2" style="text;html=1;strokeColor=none;fillColor=none;align=center;verticalAlign=middle;whiteSpace=wrap;rounded=0;" vertex="1" parent="1">
          <mxGeometry x="260" y="180" width="110" height="20" as="geometry" />
        </mxCell>
        <mxCell id="mkF0pvrn2aJnzlbThKlg-15" value="I&#39;m second hop&lt;br&gt;TTL=2" style="text;html=1;strokeColor=none;fillColor=none;align=center;verticalAlign=middle;whiteSpace=wrap;rounded=0;" vertex="1" parent="1">
          <mxGeometry x="260" y="230" width="110" height="20" as="geometry" />
        </mxCell>
        <mxCell id="mkF0pvrn2aJnzlbThKlg-16" style="rounded=0;orthogonalLoop=1;jettySize=auto;html=1;exitX=0;exitY=0.25;exitDx=0;exitDy=0;entryX=-0.017;entryY=0.622;entryDx=0;entryDy=0;entryPerimeter=0;" edge="1" parent="1" target="mkF0pvrn2aJnzlbThKlg-5">
          <mxGeometry relative="1" as="geometry">
            <mxPoint x="140" y="320" as="sourcePoint" />
            <mxPoint x="381" y="320" as="targetPoint" />
          </mxGeometry>
        </mxCell>
        <mxCell id="mkF0pvrn2aJnzlbThKlg-17" style="rounded=0;orthogonalLoop=1;jettySize=auto;html=1;exitX=0;exitY=0.25;exitDx=0;exitDy=0;entryX=-0.017;entryY=0.622;entryDx=0;entryDy=0;entryPerimeter=0;startArrow=classic;startFill=1;endArrow=none;endFill=0;" edge="1" parent="1">
          <mxGeometry relative="1" as="geometry">
            <mxPoint x="140" y="380" as="sourcePoint" />
            <mxPoint x="498" y="380" as="targetPoint" />
          </mxGeometry>
        </mxCell>
        <mxCell id="mkF0pvrn2aJnzlbThKlg-18" value="who is third hop&lt;br&gt;TTL=3" style="text;html=1;strokeColor=none;fillColor=none;align=center;verticalAlign=middle;whiteSpace=wrap;rounded=0;" vertex="1" parent="1">
          <mxGeometry x="380" y="290" width="110" height="20" as="geometry" />
        </mxCell>
        <mxCell id="mkF0pvrn2aJnzlbThKlg-19" value="I&#39;m third hop&lt;br&gt;TTL=3" style="text;html=1;strokeColor=none;fillColor=none;align=center;verticalAlign=middle;whiteSpace=wrap;rounded=0;" vertex="1" parent="1">
          <mxGeometry x="385" y="350" width="110" height="20" as="geometry" />
        </mxCell>
      </root>
    </mxGraphModel>
  </diagram>
</mxfile>
